<?xml version="1.0" encoding="UTF-8"?>
<svg id="Layer_1" data-name="Layer 1" xmlns="http://www.w3.org/2000/svg" version="1.1" xmlns:xlink="http://www.w3.org/1999/xlink" viewBox="0 0 1080 1080">
  <defs>
    <style>
      .cls-1 {
        display: none;
      }

      .cls-1, .cls-2, .cls-3, .cls-4 {
        stroke-width: 0px;
      }

      .cls-1, .cls-4 {
        fill: #fff;
      }

      .cls-2 {
        fill: none;
      }

      .cls-5 {
        clip-path: url(#clippath-1);
      }

      .cls-3 {
        fill: #e394b4;
      }

      .cls-6 {
        clip-path: url(#clippath);
      }
    </style>
    <clipPath id="clippath">
      <rect class="cls-2" x="48" y="48" width="984" height="984"/>
    </clipPath>
    <clipPath id="clippath-1">
      <circle class="cls-2" cx="540" cy="540" r="492"/>
    </clipPath>
  </defs>
  <rect class="cls-1" x="-108" y="-108" width="1296" height="1296"/>
  <rect class="cls-1" x="-108" y="-108" width="1296" height="1296"/>
  <g class="cls-6">
    <g class="cls-5">
      <path class="cls-3" d="M48,48h984v984H48V48Z"/>
    </g>
  </g>
  <path class="cls-4" d="M829.7,293.6c-96.9-51.5-284.2-53.1-436.2,107.9-1.6,1.6-2.6,3.7-2.8,5.9l-10.8,88.3c-6.7-9.9-13.5-23.4-15-39-.5-8.3-11.6-12.4-17.3-6.3-1,1-103,104.9-43.5,243.8-22.3,41.7-37.5,85.6-40.5,130.5-.6,13.2,19.1,14.9,20.4,1.4,2.8-40.6,16.4-80.7,36.8-119.2,12.7,3.2,38.8,8.6,69.4,8.6s50.1-3.3,75.1-13.3c4-1.6,6.6-5.6,6.4-10-.2-4.3-3.2-8.1-7.4-9.3-.3,0-25.4-7.5-35.8-25.5,21.7,7.7,65.2,15.2,108.5-5.4,0,0,113.4-92,113.4-92,8.1-6.2,1.9-19.9-8.1-18-.3,0-23.7,3.6-47.2-13.9,24.5-.5,61-3.8,84.1-17.9,26.2-16,82.1-76.2,120.6-136,15.3-23.9,28-47.8,34.7-68.8,1.5-4.6-.5-9.6-4.7-12ZM785.1,359.4c-37.4,16.2-72.8,11.1-73.2,11.1-13.4-1.7-16.3,17.9-3.1,20.2,13.2,2.2,38,1.3,57.7-3.6-34.7,48.5-77.3,93.3-98.1,106-30.9,18.9-96.9,14.5-97.6,14.4-8.4-.9-14.2,9.8-8.8,16.3,17.8,23.6,38.8,33.2,55.3,36.9l-92.1,74.6c-59.1,23.5-104.4-3-106.3-4.2-6.3-4.2-15.6.9-15.5,8.5-.6,25.2,15.1,41.4,29.9,51.1-40.6,8.9-82.1,2.2-102.3-2.3,92.7-157.1,288.4-282.1,291-283.7,4.8-3,6.2-9.3,3.2-14.1-3-4.8-9.3-6.2-14.1-3.2-10.4,6.5-198.8,126.9-294,284-31.8-90.9,9.5-161.9,32.1-191.5,9.7,28.4,30.1,46.9,31.2,47.9,5.8,5.5,16.2,1.6,16.9-6.4,0,0,13.2-108,13.2-108,40.3-40.6,79.9-69.5,117.7-89.8-13.7,41-9,67.8,3.9,67,6.8.1,12-7.1,9.7-13.5,0-.2-7.5-24.1,14.7-67.2,126.5-55.1,227.6-15.9,255.6-2.5-6.1,16.1-15.7,33.9-27,51.9Z"/>
</svg>