<svg xmlns="http://www.w3.org/2000/svg" xmlns:xlink="http://www.w3.org/1999/xlink" width="1080" zoomAndPan="magnify" viewBox="0 0 810 809.999993" height="1080" preserveAspectRatio="xMidYMid meet" version="1.0"><defs><clipPath id="87fa0f2bd4"><path d="M 36 36 L 774 36 L 774 774 L 36 774 Z M 36 36 " clip-rule="nonzero"/></clipPath><clipPath id="3da4da97e1"><path d="M 405 36 C 201.207031 36 36 201.207031 36 405 C 36 608.792969 201.207031 774 405 774 C 608.792969 774 774 608.792969 774 405 C 774 201.207031 608.792969 36 405 36 Z M 405 36 " clip-rule="nonzero"/></clipPath></defs><rect x="-81" width="972" fill="#ffffff" y="-80.999999" height="971.999992" fill-opacity="1"/><rect x="-81" width="972" fill="#ffffff" y="-80.999999" height="971.999992" fill-opacity="1"/><g clip-path="url(#87fa0f2bd4)"><g clip-path="url(#3da4da97e1)"><path fill="#e394b4" d="M 36 36 L 774 36 L 774 774 L 36 774 Z M 36 36 " fill-opacity="1" fill-rule="nonzero"/></g></g><path fill="#ffffff" d="M 622.277344 220.226562 C 549.574219 181.566406 409.160156 180.433594 295.132812 301.1875 C 293.957031 302.382812 293.203125 303.941406 293 305.609375 C 293 305.609375 284.894531 371.835938 284.894531 371.835938 C 279.890625 364.445312 274.761719 354.28125 273.675781 342.609375 C 273.324219 336.363281 264.949219 333.3125 260.664062 337.894531 C 259.878906 338.675781 183.386719 416.5625 228.066406 520.78125 C 211.367188 552.074219 199.976562 585.015625 197.660156 618.644531 C 197.1875 628.550781 211.980469 629.851562 212.925781 619.695312 C 215.023438 589.277344 225.261719 559.152344 240.5 530.277344 C 250.058594 532.675781 269.597656 536.734375 292.550781 536.734375 C 310.34375 536.734375 330.160156 534.289062 348.875 526.722656 C 351.902344 525.5 353.820312 522.488281 353.648438 519.222656 C 353.476562 515.960938 351.25 513.167969 348.105469 512.273438 C 347.867188 512.203125 329.089844 506.675781 321.234375 493.160156 C 337.496094 498.90625 370.109375 504.523438 402.636719 489.140625 C 402.636719 489.136719 487.703125 420.175781 487.703125 420.175781 C 493.742188 415.554688 489.164062 405.21875 481.636719 406.683594 C 481.40625 406.714844 463.851562 409.390625 446.242188 396.230469 C 464.628906 395.871094 492.019531 393.382812 509.300781 382.835938 C 528.980469 370.828125 570.90625 325.695312 599.722656 280.800781 C 611.226562 262.878906 620.738281 244.925781 625.765625 229.195312 C 626.863281 225.753906 625.410156 222.019531 622.277344 220.226562 Z M 588.824219 269.554688 C 560.765625 281.671875 534.203125 277.890625 533.933594 277.855469 C 523.894531 276.578125 521.742188 291.25 531.59375 292.976562 C 541.460938 294.628906 560.121094 293.921875 574.890625 290.269531 C 548.859375 326.636719 516.929688 360.253906 501.328125 369.773438 C 478.148438 383.925781 428.636719 380.644531 428.125 380.605469 C 421.828125 379.921875 417.460938 387.921875 421.496094 392.859375 C 434.882812 410.523438 450.589844 417.75 462.933594 420.558594 L 393.890625 476.527344 C 349.554688 494.1875 315.589844 474.265625 314.175781 473.414062 C 309.414062 470.253906 302.46875 474.078125 302.539062 479.777344 C 302.125 498.691406 313.886719 510.847656 324.984375 518.085938 C 294.558594 524.734375 263.417969 519.707031 248.277344 516.34375 C 317.792969 398.488281 464.601562 304.792969 466.492188 303.601562 C 470.070312 301.347656 471.136719 296.621094 468.882812 293.050781 C 466.636719 289.472656 461.917969 288.410156 458.332031 290.65625 C 450.566406 295.554688 309.21875 385.839844 237.828125 503.648438 C 214.011719 435.496094 244.960938 382.25 261.894531 359.988281 C 269.140625 381.308594 284.476562 395.167969 285.273438 395.878906 C 289.640625 399.988281 297.402344 397.058594 297.957031 391.089844 C 297.957031 391.09375 307.871094 310.054688 307.871094 310.054688 C 338.105469 279.574219 367.8125 257.914062 396.140625 242.738281 C 385.867188 273.480469 389.355469 293.613281 399.035156 293.019531 C 404.171875 293.128906 408.03125 287.730469 406.3125 282.882812 C 406.253906 282.699219 400.683594 264.789062 417.316406 232.488281 C 512.183594 191.152344 588.003906 220.570312 609.050781 230.617188 C 604.445312 242.714844 597.296875 256.054688 588.824219 269.554688 Z M 588.824219 269.554688 " fill-opacity="1" fill-rule="nonzero"/></svg>