<svg xmlns="http://www.w3.org/2000/svg" xmlns:xlink="http://www.w3.org/1999/xlink" width="1080" zoomAndPan="magnify" viewBox="0 0 810 809.999993" height="1080" preserveAspectRatio="xMidYMid meet" version="1.0"><defs><clipPath id="c6b158d248"><path d="M 36 36 L 774 36 L 774 774 L 36 774 Z M 36 36 " clip-rule="nonzero"/></clipPath><clipPath id="91433aad82"><path d="M 405 36 C 201.207031 36 36 201.207031 36 405 C 36 608.792969 201.207031 774 405 774 C 608.792969 774 774 608.792969 774 405 C 774 201.207031 608.792969 36 405 36 Z M 405 36 " clip-rule="nonzero"/></clipPath></defs><rect x="-81" width="972" fill="#ffffff" y="-80.999999" height="971.999992" fill-opacity="1"/><rect x="-81" width="972" fill="#ffffff" y="-80.999999" height="971.999992" fill-opacity="1"/><g clip-path="url(#c6b158d248)"><g clip-path="url(#91433aad82)"><path fill="#e394b4" d="M 36 36 L 774 36 L 774 774 L 36 774 Z M 36 36 " fill-opacity="1" fill-rule="nonzero"/></g></g><path fill="#ffffff" d="M 248.398438 507.886719 C 244.121094 510.421875 239.96875 512.957031 235.71875 515.304688 C 232.816406 516.90625 229.882812 518.570312 226.765625 519.605469 C 223.902344 520.558594 221.042969 519.503906 218.644531 517.667969 C 215.828125 515.515625 214.199219 512.535156 213.875 509.09375 C 213.652344 506.710938 214.4375 504.375 215.84375 502.289062 C 217.574219 499.722656 220.328125 498.570312 222.800781 497.082031 C 227.78125 494.085938 232.871094 491.273438 237.929688 488.40625 C 241.484375 486.390625 245.066406 484.410156 248.632812 482.40625 C 251.273438 480.921875 253.910156 479.425781 256.550781 477.9375 C 257.285156 477.519531 258.019531 477.101562 258.753906 476.683594 C 257.933594 476.3125 257.140625 475.847656 256.285156 475.585938 C 250.742188 473.898438 245.167969 472.300781 239.632812 470.578125 C 236.914062 469.734375 234.121094 468.988281 232.121094 466.6875 C 229.425781 463.582031 228.558594 459.957031 229.882812 456.183594 C 231.175781 452.496094 234.003906 450.269531 238.003906 449.460938 C 241.464844 448.765625 244.410156 450.253906 247.484375 451.167969 C 255.976562 453.703125 264.4375 456.359375 272.90625 458.972656 C 276.226562 459.996094 279.523438 461.101562 282.871094 462.019531 C 283.585938 462.214844 284.589844 461.945312 285.277344 461.5625 C 290.695312 458.511719 296.066406 455.371094 301.464844 452.277344 C 304.972656 450.265625 308.492188 448.28125 312.015625 446.300781 C 312.316406 446.132812 312.707031 446.121094 313.011719 445.957031 C 313.40625 445.734375 313.757812 445.433594 314.128906 445.167969 C 313.710938 444.890625 313.332031 444.480469 312.875 444.359375 C 310.074219 443.636719 307.238281 443.042969 304.445312 442.285156 C 296.253906 440.0625 288.050781 437.863281 279.902344 435.492188 C 276.289062 434.445312 273.125 432.746094 271.421875 428.933594 C 269.804688 425.320312 270.734375 420.855469 273.039062 418.140625 C 275.007812 415.816406 277.589844 414.75 280.449219 414.425781 C 281.835938 414.269531 283.335938 414.667969 284.726562 415.039062 C 290.242188 416.503906 295.742188 418.039062 301.238281 419.589844 C 307.308594 421.304688 313.359375 423.089844 319.433594 424.796875 C 324.6875 426.273438 329.960938 427.6875 335.226562 429.128906 C 336.296875 429.421875 337.351562 429.792969 338.441406 430.007812 C 340.394531 430.402344 341.699219 428.9375 343.183594 428.125 C 346.867188 426.113281 350.46875 423.949219 354.09375 421.828125 C 358.59375 419.191406 363.070312 416.515625 367.582031 413.898438 C 372.394531 411.109375 377.234375 408.375 382.054688 405.597656 C 382.371094 405.417969 382.59375 405.074219 382.859375 404.804688 C 382.601562 404.644531 382.34375 404.476562 382.082031 404.320312 C 376.988281 401.292969 371.90625 398.242188 366.789062 395.246094 C 360.59375 391.617188 354.363281 388.039062 348.148438 384.4375 C 345.875 383.121094 343.527344 381.910156 341.34375 380.453125 C 339.890625 379.484375 338.550781 379.535156 337.003906 379.972656 C 331.265625 381.597656 325.511719 383.15625 319.765625 384.75 C 314.703125 386.152344 309.644531 387.566406 304.585938 388.972656 C 299.132812 390.492188 293.699219 392.058594 288.226562 393.5 C 285.664062 394.175781 283.058594 394.921875 280.4375 395.074219 C 276.527344 395.304688 271.671875 391.449219 270.875 387.71875 C 269.613281 381.820312 272.179688 376.589844 278.425781 374.671875 C 284.316406 372.863281 290.3125 371.394531 296.253906 369.753906 C 301.464844 368.316406 306.664062 366.847656 311.867188 365.390625 C 312.113281 365.324219 312.359375 365.269531 312.605469 365.207031 C 313.09375 365.078125 313.585938 364.945312 314.074219 364.816406 C 313.683594 364.472656 313.34375 364.046875 312.902344 363.792969 C 307 360.355469 301.09375 356.929688 295.175781 353.527344 C 291.976562 351.691406 288.71875 349.960938 285.546875 348.089844 C 283.589844 346.9375 281.792969 347.878906 280.046875 348.410156 C 272.390625 350.730469 264.78125 353.21875 257.144531 355.605469 C 252.480469 357.0625 247.824219 358.566406 243.105469 359.832031 C 237.851562 361.242188 233.550781 359.621094 230.601562 354.925781 C 228.710938 351.917969 229.125 347.023438 231.316406 343.914062 C 233.554688 340.742188 236.976562 339.898438 240.277344 338.820312 C 245.785156 337.023438 251.351562 335.417969 256.894531 333.730469 C 257.089844 333.671875 257.292969 333.640625 257.488281 333.589844 C 257.9375 333.464844 258.382812 333.332031 258.828125 333.203125 C 258.40625 332.855469 258.023438 332.433594 257.554688 332.167969 C 254.390625 330.378906 251.199219 328.636719 248.035156 326.851562 C 244.335938 324.765625 240.648438 322.664062 236.96875 320.550781 C 230.742188 316.972656 224.371094 313.617188 218.359375 309.710938 C 214.546875 307.234375 212.855469 302.132812 214.851562 297.195312 C 216.621094 292.816406 219.78125 290.253906 224.335938 289.703125 C 226.007812 289.503906 228 290.015625 229.515625 290.824219 C 234.507812 293.492188 239.347656 296.449219 244.253906 299.285156 C 249.113281 302.09375 253.992188 304.867188 258.832031 307.707031 C 262.160156 309.65625 265.429688 311.699219 268.734375 313.683594 C 269.03125 313.859375 269.390625 313.933594 269.71875 314.054688 C 269.691406 313.691406 269.703125 313.320312 269.625 312.964844 C 268.320312 307.050781 266.964844 301.144531 265.707031 295.21875 C 265.257812 293.101562 264.917969 290.945312 264.738281 288.789062 C 264.308594 283.65625 269.691406 278.796875 274.59375 278.773438 C 280.546875 278.75 284.535156 283.253906 285.570312 288.582031 C 286.269531 292.179688 287.109375 295.753906 287.914062 299.328125 C 288.953125 303.941406 290.027344 308.550781 291.078125 313.160156 C 292.171875 317.972656 293.136719 322.820312 294.433594 327.574219 C 294.726562 328.652344 296.019531 329.652344 297.089844 330.285156 C 302.738281 333.636719 308.480469 336.835938 314.164062 340.140625 C 317.363281 342.003906 320.5 343.972656 323.679688 345.867188 C 323.957031 346.035156 324.347656 346.011719 324.6875 346.074219 C 324.660156 345.773438 324.671875 345.460938 324.597656 345.171875 C 323.089844 339.339844 321.5625 333.511719 320.054688 327.679688 C 318.570312 321.941406 317.078125 316.207031 315.636719 310.460938 C 314.140625 304.492188 317.3125 298.40625 323.625 297.238281 C 329.5625 296.140625 334.296875 299.328125 336 305.535156 C 337.675781 311.636719 339.207031 317.777344 340.773438 323.910156 C 342.242188 329.65625 343.648438 335.417969 345.128906 341.15625 C 346.71875 347.332031 348.253906 353.527344 350.097656 359.625 C 350.460938 360.824219 351.980469 361.875 353.203125 362.582031 C 361.027344 367.113281 368.925781 371.523438 376.789062 375.988281 C 382.152344 379.03125 387.488281 382.121094 392.859375 385.148438 C 394.195312 385.898438 393.9375 384.753906 393.9375 384.082031 C 393.953125 380.117188 393.921875 376.15625 393.957031 372.195312 C 394.058594 360.40625 394.167969 348.621094 394.316406 336.832031 C 394.332031 335.835938 394.042969 335.152344 393.332031 334.453125 C 388.582031 329.761719 383.902344 325.003906 379.15625 320.308594 C 373.855469 315.0625 368.519531 309.851562 363.183594 304.636719 C 359.953125 301.480469 356.640625 298.402344 353.464844 295.191406 C 351.300781 293.003906 350 290.375 350.023438 287.179688 C 350.054688 282.550781 353.4375 278.34375 358.148438 277.277344 C 362.285156 276.339844 365.472656 277.992188 368.417969 280.558594 C 369.070312 281.128906 369.648438 281.785156 370.265625 282.394531 C 377.738281 289.769531 385.210938 297.140625 392.683594 304.515625 C 392.957031 304.78125 393.222656 305.050781 393.488281 305.320312 C 393.761719 305.597656 394.027344 305.878906 394.296875 306.160156 C 394.410156 305.71875 394.621094 305.277344 394.625 304.835938 C 394.648438 300.277344 394.683594 295.71875 394.636719 291.160156 C 394.570312 284.835938 394.449219 278.511719 394.304688 272.1875 C 394.292969 271.671875 394.039062 271.027344 393.671875 270.683594 C 389.542969 266.808594 385.367188 262.984375 381.210938 259.140625 C 379.597656 257.648438 377.988281 256.15625 376.398438 254.644531 C 371.839844 250.3125 367.285156 245.976562 362.742188 241.625 C 359.828125 238.835938 358.777344 235.320312 359.917969 231.570312 C 361.085938 227.746094 363.710938 225.105469 367.894531 224.191406 C 371.382812 223.429688 374.277344 224.570312 376.917969 226.554688 C 378.574219 227.804688 380.007812 229.355469 381.523438 230.789062 C 385.503906 234.546875 389.476562 238.3125 393.457031 242.070312 C 393.640625 242.242188 393.886719 242.34375 394.101562 242.480469 C 394.183594 242.203125 394.339844 241.925781 394.335938 241.652344 C 394.246094 238.4375 394.046875 235.226562 394.039062 232.015625 C 394.007812 220.128906 393.992188 208.242188 394.066406 196.359375 C 394.097656 191.46875 398.019531 187.253906 402.824219 186.433594 C 407.0625 185.710938 410.59375 186.789062 413.527344 189.855469 C 415.265625 191.667969 416.167969 193.90625 416.171875 196.402344 C 416.203125 208.234375 416.195312 220.066406 416.15625 231.898438 C 416.144531 234.890625 415.921875 237.886719 415.863281 240.882812 C 415.851562 241.410156 416.15625 241.945312 416.3125 242.476562 C 416.652344 242.148438 416.984375 241.8125 417.332031 241.488281 C 420.273438 238.765625 423.226562 236.054688 426.15625 233.316406 C 428.394531 231.222656 430.550781 229.046875 432.832031 227.003906 C 436.273438 223.917969 440.648438 222.980469 444.769531 225.058594 C 449.3125 227.34375 452.03125 232.496094 449.917969 237.847656 C 449.40625 239.148438 448.59375 240.433594 447.621094 241.433594 C 444.800781 244.324219 441.847656 247.085938 438.914062 249.863281 C 435.644531 252.953125 432.347656 256.015625 429.046875 259.070312 C 424.933594 262.878906 420.773438 266.644531 416.699219 270.496094 C 416.203125 270.964844 415.875 271.855469 415.859375 272.558594 C 415.78125 276.734375 415.859375 280.914062 415.804688 285.09375 C 415.746094 289.574219 415.578125 294.050781 415.492188 298.53125 C 415.449219 300.71875 415.460938 302.910156 415.496094 305.097656 C 415.503906 305.476562 415.75 305.855469 415.882812 306.234375 C 416.183594 305.980469 416.515625 305.753906 416.773438 305.464844 C 417.121094 305.082031 417.367188 304.601562 417.734375 304.242188 C 425.582031 296.492188 433.425781 288.730469 441.3125 281.023438 C 443.773438 278.617188 446.605469 276.777344 450.234375 277.050781 C 454.757812 277.394531 458.855469 280.363281 459.828125 285.304688 C 460.644531 289.476562 459.238281 292.710938 456.402344 295.527344 C 454.109375 297.796875 451.734375 299.980469 449.40625 302.214844 C 448.628906 302.957031 447.882812 303.734375 447.117188 304.492188 C 436.988281 314.503906 426.863281 324.519531 416.714844 334.511719 C 416.050781 335.164062 415.757812 335.792969 415.765625 336.742188 C 415.808594 343.203125 415.742188 349.660156 415.789062 356.117188 C 415.855469 365.464844 415.980469 374.808594 416.105469 384.152344 C 416.109375 384.648438 416.320312 385.140625 416.4375 385.636719 C 416.785156 385.382812 417.109375 385.097656 417.476562 384.886719 C 419.753906 383.570312 422.035156 382.265625 424.324219 380.972656 C 429.554688 378.011719 434.800781 375.074219 440.027344 372.109375 C 444.863281 369.363281 449.683594 366.589844 454.511719 363.828125 C 455.300781 363.375 456.03125 362.726562 456.878906 362.484375 C 459.789062 361.640625 460.414062 359.230469 461.046875 356.773438 C 462.859375 349.707031 464.699219 342.652344 466.492188 335.582031 C 468.289062 328.503906 469.996094 321.40625 471.832031 314.339844 C 472.816406 310.53125 473.523438 306.550781 475.171875 303.03125 C 478.449219 296.046875 487.257812 295.265625 492.089844 300.464844 C 495.125 303.730469 495.285156 307.6875 494.199219 311.828125 C 492.132812 319.714844 490.136719 327.625 488.074219 335.511719 C 487.203125 338.832031 486.222656 342.128906 485.320312 345.441406 C 485.238281 345.738281 485.332031 346.085938 485.34375 346.410156 C 485.636719 346.324219 485.960938 346.296875 486.210938 346.144531 C 490.265625 343.742188 494.308594 341.316406 498.359375 338.910156 C 502.625 336.371094 506.898438 333.839844 511.175781 331.320312 C 511.824219 330.9375 512.484375 330.546875 513.191406 330.292969 C 515.796875 329.359375 515.890625 326.929688 516.394531 324.832031 C 518.308594 316.875 520.132812 308.894531 521.964844 300.917969 C 523.078125 296.054688 523.878906 291.101562 525.296875 286.332031 C 527.234375 279.824219 534.441406 276.910156 540.4375 280.339844 C 543.457031 282.066406 545.015625 284.726562 545.449219 288.179688 C 545.792969 290.898438 544.949219 293.410156 544.414062 295.96875 C 543.425781 300.695312 542.273438 305.390625 541.171875 310.089844 C 540.917969 311.171875 540.535156 312.222656 540.304688 313.308594 C 540.234375 313.644531 540.480469 314.046875 540.578125 314.414062 C 540.839844 314.335938 541.136719 314.308594 541.359375 314.164062 C 544.191406 312.339844 546.960938 310.417969 549.84375 308.6875 C 554.441406 305.925781 559.117188 303.296875 563.75 300.59375 C 567.46875 298.425781 571.152344 296.199219 574.882812 294.050781 C 577.066406 292.796875 579.210938 291.378906 581.550781 290.503906 C 586.457031 288.660156 591.480469 290.753906 594.136719 295.117188 C 597.25 300.234375 596.964844 305.101562 592.332031 309.375 C 590.648438 310.929688 588.429688 311.925781 586.410156 313.101562 C 581.296875 316.078125 576.175781 319.042969 571.027344 321.957031 C 566.679688 324.417969 562.28125 326.789062 557.914062 329.214844 C 556.015625 330.273438 554.125 331.347656 552.257812 332.460938 C 551.960938 332.636719 551.808594 333.058594 551.585938 333.367188 C 551.875 333.492188 552.152344 333.648438 552.449219 333.738281 C 554.617188 334.398438 556.796875 335.027344 558.960938 335.707031 C 563.761719 337.214844 568.546875 338.777344 573.355469 340.257812 C 577.894531 341.652344 581.265625 345.859375 580.523438 351.835938 C 580.101562 355.222656 577.214844 359.171875 572.5 360.179688 C 569.152344 360.898438 566.230469 359.761719 563.203125 358.828125 C 555.066406 356.316406 546.925781 353.832031 538.792969 351.316406 C 535.089844 350.171875 531.4375 348.859375 527.691406 347.875 C 526.613281 347.589844 525.132812 347.878906 524.128906 348.433594 C 518.074219 351.800781 512.109375 355.335938 506.101562 358.789062 C 503.039062 360.550781 499.9375 362.253906 496.875 364.019531 C 496.574219 364.191406 496.425781 364.625 496.210938 364.933594 C 496.5 365.058594 496.777344 365.222656 497.078125 365.296875 C 499.738281 365.960938 502.417969 366.539062 505.054688 367.273438 C 512.351562 369.300781 519.636719 371.378906 526.914062 373.46875 C 528.941406 374.054688 530.964844 374.6875 532.9375 375.433594 C 536.449219 376.761719 538.503906 379.320312 539.199219 383.039062 C 540.296875 388.9375 536.742188 393.164062 532.222656 394.855469 C 529.820312 395.753906 527.292969 395.304688 524.851562 394.625 C 517.066406 392.453125 509.285156 390.273438 501.5 388.101562 C 494.886719 386.25 488.261719 384.421875 481.65625 382.546875 C 478.40625 381.621094 475.21875 380.457031 471.933594 379.71875 C 470.894531 379.484375 469.488281 380.042969 468.476562 380.628906 C 460.597656 385.21875 452.785156 389.921875 444.925781 394.550781 C 439.695312 397.632812 434.421875 400.640625 429.183594 403.707031 C 428.660156 404.015625 428.257812 404.527344 427.800781 404.945312 C 428.214844 405.285156 428.589844 405.691406 429.046875 405.964844 C 435.167969 409.648438 441.28125 413.351562 447.441406 416.980469 C 453.058594 420.292969 458.730469 423.519531 464.378906 426.785156 C 465.910156 427.671875 467.394531 428.671875 469 429.390625 C 469.992188 429.835938 471.28125 430.25 472.257812 429.996094 C 479.636719 428.066406 486.980469 425.996094 494.3125 423.90625 C 499.453125 422.445312 504.554688 420.835938 509.695312 419.382812 C 515.191406 417.832031 520.710938 416.347656 526.234375 414.898438 C 531.613281 413.488281 537.144531 416.648438 538.871094 421.660156 C 540.730469 427.054688 537.851562 433.238281 531.84375 434.984375 C 524.757812 437.042969 517.617188 438.898438 510.503906 440.863281 C 506.660156 441.925781 502.828125 443.03125 498.984375 444.105469 C 498.445312 444.253906 497.855469 444.261719 497.335938 444.457031 C 496.917969 444.617188 496.570312 444.960938 496.191406 445.226562 C 496.492188 445.503906 496.757812 445.851562 497.105469 446.050781 C 498.984375 447.140625 500.890625 448.183594 502.777344 449.261719 C 507.863281 452.171875 512.9375 455.121094 518.039062 458.007812 C 520.585938 459.445312 523.171875 460.808594 525.773438 462.136719 C 526.144531 462.324219 526.75 462.21875 527.191406 462.082031 C 534.164062 459.917969 541.117188 457.699219 548.09375 455.554688 C 554.453125 453.597656 560.816406 451.652344 567.210938 449.816406 C 573.589844 447.980469 580.570312 452.679688 580.546875 459.59375 C 580.527344 465.3125 576.964844 468.824219 571.429688 470.515625 C 567.664062 471.667969 563.875 472.714844 560.097656 473.824219 C 557.632812 474.550781 555.171875 475.292969 552.722656 476.070312 C 552.300781 476.203125 551.949219 476.558594 551.566406 476.8125 C 551.84375 477.101562 552.070312 477.480469 552.40625 477.667969 C 556.980469 480.238281 561.597656 482.75 566.15625 485.347656 C 572.832031 489.15625 579.480469 493.011719 586.128906 496.871094 C 588.148438 498.039062 590.15625 499.230469 592.109375 500.511719 C 594.355469 501.984375 595.339844 504.242188 595.789062 506.808594 C 596.632812 511.601562 594.59375 515.332031 590.992188 518.023438 C 587.300781 520.785156 583.59375 520.902344 578.902344 518.273438 C 574.972656 516.074219 571.097656 513.777344 567.222656 511.484375 C 561.296875 507.96875 555.390625 504.410156 549.464844 500.890625 C 546.988281 499.421875 544.480469 497.996094 541.972656 496.574219 C 541.589844 496.355469 541.132812 496.269531 540.707031 496.121094 C 540.636719 496.667969 540.417969 497.25 540.523438 497.761719 C 540.863281 499.453125 541.347656 501.113281 541.722656 502.792969 C 542.820312 507.714844 543.804688 512.664062 545.003906 517.558594 C 545.988281 521.566406 545.242188 525.0625 542.347656 527.976562 C 538.722656 531.632812 533.679688 532.015625 529.265625 529.21875 C 526.289062 527.328125 525.214844 524.332031 524.460938 521.136719 C 523.15625 515.597656 521.808594 510.070312 520.574219 504.515625 C 519.109375 497.945312 517.652344 491.375 516.378906 484.769531 C 515.800781 481.757812 514.035156 480.042969 511.511719 478.605469 C 503.464844 474.015625 495.503906 469.285156 487.492188 464.636719 C 486.980469 464.339844 486.320312 464.300781 485.726562 464.140625 C 485.730469 464.703125 485.617188 465.296875 485.753906 465.824219 C 487.429688 472.289062 489.183594 478.734375 490.828125 485.207031 C 492.226562 490.71875 493.84375 496.207031 494.714844 501.804688 C 495.285156 505.464844 493.425781 508.726562 490.25 510.839844 C 485.746094 513.835938 481 513.265625 477.167969 509.878906 C 475.152344 508.101562 474.316406 505.496094 473.660156 502.890625 C 471.886719 495.871094 470.070312 488.859375 468.277344 481.839844 C 466.386719 474.429688 464.507812 467.011719 462.617188 459.601562 C 461.828125 456.507812 461 453.429688 460.246094 450.328125 C 459.816406 448.558594 458.261719 448.097656 456.964844 447.351562 C 450.472656 443.640625 443.960938 439.960938 437.464844 436.261719 C 431.753906 433.007812 426.054688 429.742188 420.34375 426.484375 C 419.46875 425.984375 418.589844 425.488281 417.695312 425.023438 C 416.242188 424.265625 416.074219 424.375 416.070312 426.078125 C 416.0625 429.875 416.089844 433.675781 416.058594 437.472656 C 415.957031 449.261719 415.847656 461.046875 415.695312 472.835938 C 415.679688 474.058594 416.089844 474.925781 416.9375 475.753906 C 423.851562 482.535156 430.738281 489.34375 437.640625 496.132812 C 443.035156 501.441406 448.472656 506.703125 453.828125 512.050781 C 455.617188 513.839844 457.570312 515.625 458.808594 517.777344 C 460.902344 521.429688 460.398438 525.300781 457.914062 528.621094 C 455.519531 531.824219 452.050781 533.125 448.0625 532.632812 C 445.84375 532.359375 443.875 531.308594 442.273438 529.75 C 436.652344 524.285156 431.066406 518.785156 425.484375 513.28125 C 422.585938 510.425781 419.730469 507.523438 416.839844 504.65625 C 416.566406 504.382812 416.171875 504.226562 415.832031 504.015625 C 415.679688 504.441406 415.386719 504.871094 415.398438 505.292969 C 415.453125 507.203125 415.683594 509.109375 415.675781 511.019531 C 415.664062 513.417969 415.371094 515.816406 415.386719 518.210938 C 415.433594 524.644531 415.535156 531.078125 415.738281 537.507812 C 415.761719 538.324219 416.351562 539.289062 416.964844 539.890625 C 418.941406 541.816406 421.082031 543.578125 423.105469 545.457031 C 426.757812 548.851562 430.363281 552.296875 434.003906 555.703125 C 436.933594 558.441406 439.933594 561.101562 442.808594 563.898438 C 444.996094 566.027344 447.367188 568.082031 449.058594 570.578125 C 451.792969 574.605469 450.292969 580.378906 446.554688 583.507812 C 442.597656 586.820312 435.960938 586.167969 432.699219 582.796875 C 430.59375 580.625 428.210938 578.71875 425.980469 576.664062 C 422.832031 573.761719 419.714844 570.828125 416.574219 567.917969 C 416.425781 567.78125 416.082031 567.613281 416.027344 567.664062 C 415.855469 567.828125 415.675781 568.09375 415.683594 568.316406 C 415.765625 571.527344 415.882812 574.738281 415.988281 577.949219 C 416 578.328125 415.988281 578.707031 415.988281 579.089844 C 415.980469 590.433594 416.070312 601.777344 415.925781 613.117188 C 415.859375 618.246094 412.929688 621.808594 408.175781 623.121094 C 403.972656 624.28125 399.976562 623.40625 396.785156 620.347656 C 394.957031 618.59375 393.875 616.199219 393.859375 613.621094 C 393.789062 602.167969 393.8125 590.71875 393.859375 579.265625 C 393.871094 575.726562 394.070312 572.191406 394.164062 568.65625 C 394.171875 568.261719 394.027344 567.867188 393.957031 567.476562 C 393.621094 567.71875 393.257812 567.929688 392.960938 568.210938 C 389.546875 571.386719 386.175781 574.609375 382.730469 577.75 C 380.347656 579.917969 378.042969 582.238281 375.394531 584.035156 C 369.421875 588.085938 360.914062 584.699219 359.605469 577.164062 C 358.945312 573.351562 360.246094 570.34375 362.769531 567.824219 C 366.757812 563.839844 370.921875 560.035156 375.03125 556.175781 C 377.957031 553.429688 380.898438 550.707031 383.863281 548.007812 C 387.046875 545.105469 390.28125 542.261719 393.460938 539.355469 C 393.8125 539.035156 393.976562 538.496094 394.179688 538.035156 C 394.257812 537.851562 394.1875 537.605469 394.191406 537.386719 C 394.304688 526.6875 394.425781 515.984375 394.519531 505.285156 C 394.523438 504.789062 394.304688 504.292969 394.195312 503.796875 C 393.808594 504.082031 393.382812 504.328125 393.046875 504.660156 C 390.539062 507.140625 388.066406 509.65625 385.550781 512.128906 C 379.578125 518.007812 373.628906 523.914062 367.582031 529.71875 C 364.960938 532.234375 361.644531 533.289062 358.109375 532.441406 C 353.996094 531.457031 351.257812 528.902344 350.191406 524.5625 C 349.027344 519.820312 351.832031 515.386719 355.097656 512.75 C 355.378906 512.519531 355.699219 512.328125 355.957031 512.074219 C 365.820312 502.335938 375.675781 492.585938 385.550781 482.855469 C 388.039062 480.402344 390.652344 478.070312 393.089844 475.5625 C 393.707031 474.925781 394.171875 473.84375 394.175781 472.960938 C 394.253906 461.941406 394.265625 450.925781 394.226562 439.90625 C 394.210938 435.554688 394.003906 431.207031 393.933594 426.851562 C 393.890625 424.257812 393.886719 424.175781 391.476562 425.507812 C 385.949219 428.566406 380.476562 431.71875 374.972656 434.816406 C 370.792969 437.171875 366.59375 439.488281 362.414062 441.839844 C 358.628906 443.972656 354.828125 446.082031 351.105469 448.324219 C 350.429688 448.730469 349.875 449.660156 349.660156 450.453125 C 348.078125 456.265625 346.59375 462.109375 345.082031 467.941406 C 343.4375 474.261719 341.78125 480.582031 340.164062 486.910156 C 338.621094 492.949219 337.320312 499.058594 335.519531 505.023438 C 334.289062 509.105469 331.480469 511.769531 326.921875 512.453125 C 320.792969 513.371094 315.828125 508.488281 315.320312 503.601562 C 314.972656 500.234375 316.148438 497.277344 316.886719 494.210938 C 318.765625 486.382812 320.882812 478.613281 322.910156 470.820312 C 323.445312 468.765625 324.023438 466.722656 324.5625 464.667969 C 324.65625 464.308594 324.65625 463.929688 324.703125 463.558594 C 324.3125 463.667969 323.878906 463.699219 323.542969 463.894531 C 320.519531 465.644531 317.511719 467.421875 314.5 469.195312 C 310.789062 471.378906 307.089844 473.582031 303.371094 475.746094 C 301.144531 477.042969 298.902344 478.308594 296.636719 479.539062 C 294.707031 480.589844 294.195312 482.378906 293.753906 484.351562 C 292.015625 492.140625 290.191406 499.910156 288.363281 507.683594 C 287.089844 513.117188 285.808594 518.554688 284.4375 523.96875 C 283.492188 527.699219 280.667969 529.652344 277.222656 530.578125 C 270.882812 532.277344 265.074219 527.460938 264.550781 521.46875 C 264.273438 518.273438 265.335938 515.355469 265.9375 512.351562 C 266.875 507.667969 268.070312 503.039062 269.167969 498.386719 C 269.308594 497.804688 269.5625 497.246094 269.722656 496.664062 C 269.8125 496.339844 269.816406 495.992188 269.859375 495.652344 C 269.5 495.691406 269.074219 495.617188 268.789062 495.785156 C 266.210938 497.304688 263.664062 498.875 261.09375 500.410156 C 257.351562 502.644531 253.601562 504.863281 249.851562 507.082031 C 249.40625 507.34375 248.9375 507.566406 248.398438 507.886719 Z M 248.398438 507.886719 " fill-opacity="1" fill-rule="nonzero"/></svg>