<svg xmlns="http://www.w3.org/2000/svg" xmlns:xlink="http://www.w3.org/1999/xlink" width="1080" zoomAndPan="magnify" viewBox="0 0 810 809.999993" height="1080" preserveAspectRatio="xMidYMid meet" version="1.0"><defs><clipPath id="8f9e69b2c8"><path d="M 36 36 L 774 36 L 774 774 L 36 774 Z M 36 36 " clip-rule="nonzero"/></clipPath><clipPath id="4a0b2c0cfd"><path d="M 405 36 C 201.207031 36 36 201.207031 36 405 C 36 608.792969 201.207031 774 405 774 C 608.792969 774 774 608.792969 774 405 C 774 201.207031 608.792969 36 405 36 Z M 405 36 " clip-rule="nonzero"/></clipPath><clipPath id="d20b7bea3e"><path d="M 206.136719 175.433594 L 603.636719 175.433594 L 603.636719 634.433594 L 206.136719 634.433594 Z M 206.136719 175.433594 " clip-rule="nonzero"/></clipPath></defs><rect x="-81" width="972" fill="#ffffff" y="-80.999999" height="971.999992" fill-opacity="1"/><rect x="-81" width="972" fill="#ffffff" y="-80.999999" height="971.999992" fill-opacity="1"/><g clip-path="url(#8f9e69b2c8)"><g clip-path="url(#4a0b2c0cfd)"><path fill="#e394b4" d="M 36 36 L 774 36 L 774 774 L 36 774 Z M 36 36 " fill-opacity="1" fill-rule="nonzero"/></g></g><g clip-path="url(#d20b7bea3e)"><path fill="#ffffff" d="M 545.636719 552.652344 C 518.40625 513.011719 471.472656 442.84375 458.882812 412.207031 C 451.109375 393.308594 444.539062 368.652344 441.667969 357.1875 L 451.554688 357.1875 C 455.839844 365.746094 469.382812 392.074219 483.183594 411.578125 C 507.441406 445.855469 570.707031 514.90625 588.882812 534.582031 C 581.09375 538.5 566.144531 545.496094 545.636719 552.652344 Z M 495.867188 589.8125 C 476.429688 543.5625 440.625 455.601562 434.015625 420.050781 C 429.886719 397.789062 428.621094 368.867188 428.265625 357.1875 L 430.425781 357.1875 C 432.902344 367.335938 439.984375 394.933594 448.792969 416.351562 C 461.625 447.597656 507.175781 515.949219 534.84375 556.261719 C 537.144531 559.617188 539.316406 562.765625 541.335938 565.691406 C 545.617188 571.875 549.214844 577.027344 551.855469 580.792969 C 541.753906 582.808594 522.433594 586.347656 495.867188 589.8125 Z M 495.59375 617.078125 C 480.421875 619.121094 442.679688 623.613281 403.421875 623.613281 C 370.074219 623.613281 327.898438 618.960938 311.304688 616.960938 C 312.570312 614.011719 314.207031 610.210938 316.125 605.703125 C 317.46875 602.53125 318.972656 599.003906 320.582031 595.1875 C 340.0625 548.953125 376.621094 459.347656 383.546875 422.050781 C 387.914062 398.5625 389.164062 368.929688 389.503906 357.1875 L 417.34375 357.1875 C 417.679688 368.929688 418.929688 398.5625 423.289062 422.050781 C 430.027344 458.308594 464.773438 544.007812 484.605469 591.21875 C 486.171875 594.957031 487.648438 598.457031 489.011719 601.667969 C 491.710938 608.039062 493.957031 613.289062 495.59375 617.078125 Z M 254.480469 581.507812 C 257.464844 577.265625 261.820312 571.027344 267.082031 563.40625 C 269.121094 560.453125 271.292969 557.300781 273.585938 553.964844 C 301.359375 513.398438 345.445312 447.011719 358.054688 416.351562 C 366.863281 394.933594 373.945312 367.335938 376.421875 357.1875 L 378.582031 357.1875 C 378.222656 368.867188 376.96875 397.78125 372.828125 420.050781 C 366.039062 456.609375 328.371094 548.570312 309.371094 593.621094 C 283.476562 589.675781 264.136719 584.441406 254.480469 581.507812 Z M 221.296875 534.289062 C 239.816406 514.25 302.605469 445.6875 326.742188 411.578125 C 340.542969 392.074219 354.089844 365.746094 358.375 357.1875 L 365.167969 357.1875 C 362.304688 368.652344 355.742188 393.296875 347.960938 412.207031 C 335.601562 442.261719 290.175781 510.414062 262.746094 550.410156 C 243.628906 543.917969 229.164062 537.816406 221.296875 534.289062 Z M 346.636719 231.308594 C 347.058594 230.582031 347.304688 229.769531 347.359375 228.929688 L 350.074219 186.34375 L 358.851562 186.34375 L 363.359375 211.679688 C 363.535156 217.683594 366.761719 223.113281 371.867188 225.941406 L 403.148438 243.246094 C 404.789062 244.15625 406.789062 244.15625 408.429688 243.246094 L 439.707031 225.941406 C 444.8125 223.113281 448.039062 217.683594 448.214844 211.679688 L 452.726562 186.34375 L 461.5 186.34375 L 464.21875 228.929688 C 464.273438 229.761719 464.515625 230.578125 464.933594 231.304688 C 465.109375 231.609375 482.421875 262.421875 465.371094 284.113281 C 459.824219 291.167969 454.46875 302.203125 451.960938 307.703125 L 359.613281 307.703125 C 357.105469 302.203125 351.75 291.167969 346.203125 284.113281 C 329.152344 262.421875 346.464844 231.609375 346.636719 231.308594 Z M 360.96875 346.277344 L 360.96875 319.511719 L 449.632812 319.511719 L 449.632812 346.277344 Z M 601.710938 532.359375 C 600.894531 531.480469 519.523438 444.042969 492.09375 405.277344 C 477.898438 385.222656 463.488281 356.679688 460.542969 350.761719 L 460.542969 315.257812 C 460.804688 314.636719 467.472656 299.097656 473.949219 290.851562 C 493.683594 265.75 478.515625 233.644531 475.027344 227.027344 L 472.058594 180.539062 C 471.878906 177.667969 469.496094 175.433594 466.617188 175.433594 L 448.15625 175.433594 C 445.511719 175.433594 443.246094 177.328125 442.785156 179.929688 L 437.398438 210.195312 C 437.34375 210.511719 437.316406 210.832031 437.316406 211.152344 C 437.316406 213.363281 436.179688 215.421875 434.421875 216.394531 L 405.785156 232.238281 L 377.152344 216.394531 C 375.394531 215.421875 374.261719 213.363281 374.261719 211.152344 C 374.261719 210.832031 374.234375 210.511719 374.175781 210.195312 L 368.792969 179.929688 C 368.328125 177.328125 366.0625 175.433594 363.417969 175.433594 L 344.957031 175.433594 C 342.082031 175.433594 339.699219 177.667969 339.515625 180.539062 L 336.546875 227.027344 C 333.058594 233.644531 317.890625 265.75 337.625 290.851562 C 342.714844 297.332031 347.9375 308.355469 350.058594 313.058594 L 350.058594 349.703125 L 349.9375 349.648438 C 349.773438 349.972656 333.660156 382.914062 317.835938 405.277344 C 290.40625 444.042969 209.035156 531.480469 208.214844 532.359375 C 207.042969 533.613281 206.535156 535.351562 206.84375 537.054688 C 207.140625 538.742188 208.222656 540.1875 209.769531 540.960938 C 210.597656 541.371094 227.988281 550.015625 256.28125 559.800781 C 247.394531 572.683594 241.535156 580.957031 241.308594 581.273438 C 240.324219 582.664062 240.046875 584.429688 240.554688 586.054688 C 241.066406 587.683594 242.300781 588.976562 243.898438 589.558594 C 245.472656 590.121094 268.4375 598.3125 304.941406 604.074219 C 300.988281 613.371094 298.535156 619.011719 298.40625 619.292969 C 297.722656 620.859375 297.8125 622.660156 298.65625 624.152344 C 299.496094 625.644531 300.988281 626.652344 302.6875 626.878906 C 303.261719 626.949219 360.421875 634.523438 403.421875 634.523438 C 454.917969 634.523438 503.796875 626.933594 504.285156 626.859375 C 505.949219 626.59375 507.402344 625.578125 508.214844 624.09375 C 509.03125 622.613281 509.113281 620.839844 508.429688 619.292969 C 508.285156 618.976562 505.167969 611.785156 500.265625 600.222656 C 539.109375 595.058594 561.9375 589.832031 562.316406 589.738281 C 564.09375 589.328125 565.539062 588.066406 566.179688 586.363281 C 566.828125 584.667969 566.59375 582.757812 565.539062 581.273438 C 565.328125 580.972656 560.117188 573.628906 552.089844 562.007812 C 582.128906 551.289062 599.671875 541.253906 600.449219 540.804688 C 601.886719 539.972656 602.867188 538.535156 603.113281 536.890625 C 603.367188 535.242188 602.847656 533.578125 601.710938 532.359375 " fill-opacity="1" fill-rule="nonzero"/></g></svg>