<?xml version="1.0" encoding="UTF-8"?>
<svg id="Layer_1" data-name="Layer 1" xmlns="http://www.w3.org/2000/svg" version="1.1" xmlns:xlink="http://www.w3.org/1999/xlink" viewBox="0 0 1080 1080">
  <defs>
    <style>
      .cls-1 {
        display: none;
      }

      .cls-1, .cls-2, .cls-3, .cls-4 {
        stroke-width: 0px;
      }

      .cls-1, .cls-4 {
        fill: #fff;
      }

      .cls-2 {
        fill: none;
      }

      .cls-5 {
        clip-path: url(#clippath-1);
      }

      .cls-3 {
        fill: #e394b4;
      }

      .cls-6 {
        clip-path: url(#clippath);
      }
    </style>
    <clipPath id="clippath">
      <rect class="cls-2" x="48" y="48" width="984" height="984"/>
    </clipPath>
    <clipPath id="clippath-1">
      <circle class="cls-2" cx="540" cy="540" r="492"/>
    </clipPath>
  </defs>
  <rect class="cls-1" x="-108" y="-108" width="1296" height="1296"/>
  <rect class="cls-1" x="-108" y="-108" width="1296" height="1296"/>
  <g class="cls-6">
    <g class="cls-5">
      <path class="cls-3" d="M48,48h984v984H48V48Z"/>
    </g>
  </g>
  <path class="cls-4" d="M331.2,677.2c-5.7,3.4-11.2,6.8-16.9,9.9-3.9,2.1-7.8,4.4-11.9,5.7-3.8,1.3-7.6-.1-10.8-2.6-3.8-2.9-5.9-6.8-6.4-11.4-.3-3.2.8-6.3,2.6-9.1,2.3-3.4,6-5,9.3-6.9,6.6-4,13.4-7.7,20.2-11.6,4.7-2.7,9.5-5.3,14.3-8,3.5-2,7-4,10.6-6l2.9-1.7c-1.1-.5-2.2-1.1-3.3-1.5-7.4-2.3-14.8-4.4-22.2-6.7-3.6-1.1-7.3-2.1-10-5.2-3.6-4.1-4.8-9-3-14,1.7-4.9,5.5-7.9,10.8-9,4.6-.9,8.5,1.1,12.6,2.3,11.3,3.4,22.6,6.9,33.9,10.4,4.4,1.4,8.8,2.8,13.3,4.1,1,.3,2.3,0,3.2-.6,7.2-4.1,14.4-8.3,21.6-12.4,4.7-2.7,9.4-5.3,14.1-8,.4-.2.9-.2,1.3-.5.5-.3,1-.7,1.5-1.1-.6-.4-1.1-.9-1.7-1.1-3.7-1-7.5-1.8-11.2-2.8-10.9-3-21.9-5.9-32.7-9.1-4.8-1.4-9-3.7-11.3-8.7-2.2-4.8-.9-10.8,2.2-14.4,2.6-3.1,6.1-4.5,9.9-5,1.8-.2,3.8.3,5.7.8,7.4,2,14.7,4,22,6.1,8.1,2.3,16.2,4.7,24.3,6.9,7,2,14,3.9,21.1,5.8,1.4.4,2.8.9,4.3,1.2,2.6.5,4.3-1.4,6.3-2.5,4.9-2.7,9.7-5.6,14.5-8.4,6-3.5,12-7.1,18-10.6,6.4-3.7,12.9-7.4,19.3-11.1.4-.2.7-.7,1.1-1.1-.3-.2-.7-.4-1-.6-6.8-4-13.6-8.1-20.4-12.1-8.3-4.8-16.6-9.6-24.9-14.4-3-1.8-6.2-3.4-9.1-5.3-1.9-1.3-3.7-1.2-5.8-.6-7.7,2.2-15.3,4.2-23,6.4-6.8,1.9-13.5,3.8-20.2,5.6-7.3,2-14.5,4.1-21.8,6-3.4.9-6.9,1.9-10.4,2.1-5.2.3-11.7-4.8-12.8-9.8-1.7-7.9,1.7-14.8,10.1-17.4,7.9-2.4,15.8-4.4,23.8-6.6,6.9-1.9,13.9-3.9,20.8-5.8.3,0,.7-.2,1-.2.7-.2,1.3-.3,2-.5-.5-.5-1-1-1.6-1.4-7.9-4.6-15.7-9.2-23.6-13.7-4.3-2.4-8.6-4.8-12.8-7.3-2.6-1.5-5-.3-7.3.4-10.2,3.1-20.4,6.4-30.5,9.6-6.2,1.9-12.4,3.9-18.7,5.6-7,1.9-12.7-.3-16.7-6.5-2.5-4-2-10.5,1-14.7,3-4.2,7.5-5.4,11.9-6.8,7.3-2.4,14.8-4.5,22.2-6.8.3,0,.5-.1.8-.2.6-.2,1.2-.3,1.8-.5-.6-.5-1.1-1-1.7-1.4-4.2-2.4-8.5-4.7-12.7-7.1-4.9-2.8-9.8-5.6-14.8-8.4-8.3-4.8-16.8-9.2-24.8-14.5-5.1-3.3-7.3-10.1-4.7-16.7,2.4-5.8,6.6-9.3,12.6-10,2.2-.3,4.9.4,6.9,1.5,6.7,3.6,13.1,7.5,19.7,11.3,6.5,3.7,13,7.4,19.4,11.2,4.4,2.6,8.8,5.3,13.2,8,.4.2.9.3,1.3.5,0-.5,0-1-.1-1.5-1.7-7.9-3.5-15.8-5.2-23.7-.6-2.8-1.1-5.7-1.3-8.6-.6-6.8,6.6-13.3,13.1-13.4,7.9,0,13.3,6,14.6,13.1.9,4.8,2.1,9.6,3.1,14.3,1.4,6.2,2.8,12.3,4.2,18.4,1.5,6.4,2.7,12.9,4.5,19.2.4,1.4,2.1,2.8,3.5,3.6,7.5,4.5,15.2,8.7,22.8,13.1,4.3,2.5,8.4,5.1,12.7,7.6.4.2.9.2,1.3.3,0-.4,0-.8-.1-1.2-2-7.8-4-15.5-6.1-23.3-2-7.7-4-15.3-5.9-23-2-8,2.2-16.1,10.7-17.6,7.9-1.5,14.2,2.8,16.5,11.1,2.2,8.1,4.3,16.3,6.4,24.5,2,7.7,3.8,15.3,5.8,23,2.1,8.2,4.2,16.5,6.6,24.6.5,1.6,2.5,3,4.1,3.9,10.4,6,21,11.9,31.4,17.9,7.2,4.1,14.3,8.2,21.4,12.2,1.8,1,1.4-.5,1.4-1.4,0-5.3,0-10.6,0-15.8.1-15.7.3-31.4.5-47.2,0-1.3-.4-2.2-1.3-3.2-6.3-6.3-12.6-12.6-18.9-18.9-7.1-7-14.2-13.9-21.3-20.9-4.3-4.2-8.7-8.3-13-12.6-2.9-2.9-4.6-6.4-4.6-10.7,0-6.2,4.6-11.8,10.8-13.2,5.5-1.3,9.8,1,13.7,4.4.9.8,1.6,1.6,2.5,2.4,10,9.8,19.9,19.7,29.9,29.5.4.4.7.7,1.1,1.1.4.4.7.7,1.1,1.1.2-.6.4-1.2.4-1.8,0-6.1,0-12.2,0-18.2,0-8.4-.3-16.9-.4-25.3,0-.7-.4-1.5-.8-2-5.5-5.2-11.1-10.3-16.6-15.4-2.2-2-4.3-4-6.4-6-6.1-5.8-12.2-11.6-18.2-17.4-3.9-3.7-5.3-8.4-3.8-13.4,1.6-5.1,5.1-8.6,10.6-9.8,4.7-1,8.5.5,12,3.2,2.2,1.7,4.1,3.7,6.1,5.6,5.3,5,10.6,10,15.9,15,.2.2.6.4.9.5.1-.4.3-.7.3-1.1-.1-4.3-.4-8.6-.4-12.8,0-15.8,0-31.7,0-47.5,0-6.5,5.3-12.1,11.7-13.2,5.7-1,10.4.5,14.3,4.6,2.3,2.4,3.5,5.4,3.5,8.7,0,15.8,0,31.6,0,47.3,0,4-.3,8-.4,12,0,.7.4,1.4.6,2.1.5-.4.9-.9,1.4-1.3,3.9-3.6,7.9-7.2,11.8-10.9,3-2.8,5.9-5.7,8.9-8.4,4.6-4.1,10.4-5.4,15.9-2.6,6.1,3,9.7,9.9,6.9,17.1-.7,1.7-1.8,3.4-3.1,4.8-3.8,3.9-7.7,7.5-11.6,11.2-4.4,4.1-8.8,8.2-13.2,12.3-5.5,5.1-11,10.1-16.5,15.2-.7.6-1.1,1.8-1.1,2.8-.1,5.6,0,11.1,0,16.7,0,6-.3,11.9-.4,17.9,0,2.9,0,5.8,0,8.8,0,.5.3,1,.5,1.5.4-.3.8-.6,1.2-1,.5-.5.8-1.2,1.3-1.6,10.5-10.3,20.9-20.7,31.4-31,3.3-3.2,7.1-5.7,11.9-5.3,6,.5,11.5,4.4,12.8,11,1.1,5.6-.8,9.9-4.6,13.6-3.1,3-6.2,5.9-9.3,8.9-1,1-2,2-3.1,3-13.5,13.3-27,26.7-40.5,40-.9.9-1.3,1.7-1.3,3,0,8.6,0,17.2,0,25.8,0,12.5.3,24.9.4,37.4,0,.7.3,1.3.4,2,.5-.3.9-.7,1.4-1,3-1.8,6.1-3.5,9.1-5.2,7-3.9,14-7.9,20.9-11.8,6.4-3.7,12.9-7.4,19.3-11,1.1-.6,2-1.5,3.2-1.8,3.9-1.1,4.7-4.3,5.6-7.6,2.4-9.4,4.9-18.8,7.3-28.3,2.4-9.4,4.7-18.9,7.1-28.3,1.3-5.1,2.3-10.4,4.5-15.1,4.4-9.3,16.1-10.4,22.6-3.4,4,4.4,4.3,9.6,2.8,15.2-2.8,10.5-5.4,21.1-8.2,31.6-1.2,4.4-2.5,8.8-3.7,13.2-.1.4,0,.9,0,1.3.4-.1.8-.2,1.2-.4,5.4-3.2,10.8-6.4,16.2-9.6,5.7-3.4,11.4-6.8,17.1-10.1.9-.5,1.7-1,2.7-1.4,3.5-1.2,3.6-4.5,4.3-7.3,2.6-10.6,5-21.3,7.4-31.9,1.5-6.5,2.6-13.1,4.4-19.4,2.6-8.7,12.2-12.6,20.2-8,4,2.3,6.1,5.8,6.7,10.5.5,3.6-.7,7-1.4,10.4-1.3,6.3-2.9,12.6-4.3,18.8-.3,1.4-.8,2.8-1.2,4.3,0,.4.2,1,.4,1.5.3-.1.7-.1,1-.3,3.8-2.4,7.5-5,11.3-7.3,6.1-3.7,12.4-7.2,18.5-10.8,5-2.9,9.9-5.9,14.8-8.7,2.9-1.7,5.8-3.6,8.9-4.7,6.5-2.5,13.2.3,16.8,6.2,4.2,6.8,3.8,13.3-2.4,19-2.2,2.1-5.2,3.4-7.9,5-6.8,4-13.6,7.9-20.5,11.8-5.8,3.3-11.7,6.4-17.5,9.7-2.5,1.4-5.1,2.8-7.5,4.3-.4.2-.6.8-.9,1.2.4.2.8.4,1.2.5,2.9.9,5.8,1.7,8.7,2.6,6.4,2,12.8,4.1,19.2,6.1,6.1,1.9,10.5,7.5,9.6,15.4-.6,4.5-4.4,9.8-10.7,11.1-4.5,1-8.4-.6-12.4-1.8-10.8-3.3-21.7-6.7-32.5-10-4.9-1.5-9.8-3.3-14.8-4.6-1.4-.4-3.4,0-4.8.7-8.1,4.5-16,9.2-24,13.8-4.1,2.3-8.2,4.6-12.3,7-.4.2-.6.8-.9,1.2.4.2.8.4,1.2.5,3.5.9,7.1,1.7,10.6,2.6,9.7,2.7,19.4,5.5,29.1,8.3,2.7.8,5.4,1.6,8,2.6,4.7,1.8,7.4,5.2,8.3,10.1,1.5,7.9-3.3,13.5-9.3,15.8-3.2,1.2-6.6.6-9.8-.3-10.4-2.9-20.8-5.8-31.1-8.7-8.8-2.5-17.7-4.9-26.5-7.4-4.3-1.2-8.6-2.8-13-3.8-1.4-.3-3.3.4-4.6,1.2-10.5,6.1-20.9,12.4-31.4,18.6-7,4.1-14,8.1-21,12.2-.7.4-1.2,1.1-1.8,1.7.6.5,1.1,1,1.7,1.4,8.2,4.9,16.3,9.8,24.5,14.7,7.5,4.4,15.1,8.7,22.6,13.1,2,1.2,4,2.5,6.2,3.5,1.3.6,3,1.1,4.3.8,9.8-2.6,19.6-5.3,29.4-8.1,6.9-1.9,13.7-4.1,20.5-6,7.3-2.1,14.7-4,22.1-6,7.2-1.9,14.5,2.3,16.8,9,2.5,7.2-1.4,15.4-9.4,17.8-9.4,2.7-19,5.2-28.5,7.8-5.1,1.4-10.2,2.9-15.4,4.3-.7.2-1.5.2-2.2.5-.6.2-1,.7-1.5,1,.4.4.8.8,1.2,1.1,2.5,1.5,5,2.8,7.6,4.3,6.8,3.9,13.5,7.8,20.3,11.7,3.4,1.9,6.8,3.7,10.3,5.5.5.3,1.3.1,1.9,0,9.3-2.9,18.6-5.8,27.9-8.7,8.5-2.6,17-5.2,25.5-7.7,8.5-2.4,17.8,3.8,17.8,13,0,7.6-4.8,12.3-12.2,14.6-5,1.5-10.1,2.9-15.1,4.4-3.3,1-6.6,2-9.8,3-.6.2-1,.7-1.5,1,.4.4.7.9,1.1,1.1,6.1,3.4,12.3,6.8,18.3,10.2,8.9,5.1,17.8,10.2,26.6,15.4,2.7,1.6,5.4,3.1,8,4.9,3,2,4.3,5,4.9,8.4,1.1,6.4-1.6,11.4-6.4,15-4.9,3.7-9.9,3.8-16.1.3-5.2-2.9-10.4-6-15.6-9.1-7.9-4.7-15.8-9.4-23.7-14.1-3.3-2-6.6-3.9-10-5.8-.5-.3-1.1-.4-1.7-.6,0,.7-.4,1.5-.2,2.2.5,2.3,1.1,4.5,1.6,6.7,1.5,6.6,2.8,13.2,4.4,19.7,1.3,5.3.3,10-3.5,13.9-4.8,4.9-11.6,5.4-17.4,1.7-4-2.5-5.4-6.5-6.4-10.8-1.7-7.4-3.5-14.8-5.2-22.2-2-8.8-3.9-17.5-5.6-26.3-.8-4-3.1-6.3-6.5-8.2-10.7-6.1-21.3-12.4-32-18.6-.7-.4-1.6-.4-2.4-.7,0,.8-.1,1.5,0,2.2,2.2,8.6,4.6,17.2,6.8,25.8,1.9,7.3,4,14.7,5.2,22.1.8,4.9-1.7,9.2-6,12-6,4-12.3,3.2-17.4-1.3-2.7-2.4-3.8-5.8-4.7-9.3-2.4-9.4-4.8-18.7-7.2-28.1-2.5-9.9-5-19.8-7.5-29.7-1.1-4.1-2.2-8.2-3.2-12.4-.6-2.4-2.6-3-4.4-4-8.7-4.9-17.3-9.9-26-14.8-7.6-4.3-15.2-8.7-22.8-13-1.2-.7-2.3-1.3-3.5-1.9-1.9-1-2.2-.9-2.2,1.4,0,5.1,0,10.1,0,15.2-.1,15.7-.3,31.4-.5,47.2,0,1.6.5,2.8,1.7,3.9,9.2,9,18.4,18.1,27.6,27.2,7.2,7.1,14.4,14.1,21.6,21.2,2.4,2.4,5,4.8,6.6,7.6,2.8,4.9,2.1,10-1.2,14.5-3.2,4.3-7.8,6-13.1,5.3-3-.4-5.6-1.8-7.7-3.8-7.5-7.3-14.9-14.6-22.4-22-3.9-3.8-7.7-7.7-11.5-11.5-.4-.4-.9-.6-1.3-.9-.2.6-.6,1.1-.6,1.7,0,2.5.4,5.1.4,7.6,0,3.2-.4,6.4-.4,9.6,0,8.6.2,17.2.5,25.7,0,1.1.8,2.4,1.6,3.2,2.6,2.6,5.5,4.9,8.2,7.4,4.9,4.5,9.7,9.1,14.5,13.7,3.9,3.7,7.9,7.2,11.7,10.9,2.9,2.8,6.1,5.6,8.3,8.9,3.6,5.4,1.6,13.1-3.3,17.2-5.3,4.4-14.1,3.5-18.5-.9-2.8-2.9-6-5.4-9-8.2-4.2-3.9-8.4-7.8-12.5-11.7-.2-.2-.7-.4-.7-.3-.2.2-.5.6-.5.9.1,4.3.3,8.6.4,12.8,0,.5,0,1,0,1.5,0,15.1.1,30.3,0,45.4,0,6.8-4,11.6-10.3,13.3-5.6,1.5-10.9.4-15.2-3.7-2.4-2.3-3.9-5.5-3.9-9,0-15.3,0-30.5,0-45.8,0-4.7.3-9.4.4-14.1,0-.5-.2-1.1-.3-1.6-.4.3-.9.6-1.3,1-4.6,4.2-9,8.5-13.6,12.7-3.2,2.9-6.3,6-9.8,8.4-8,5.4-19.3.9-21.1-9.2-.9-5.1.9-9.1,4.2-12.5,5.3-5.3,10.9-10.4,16.3-15.5,3.9-3.7,7.8-7.3,11.8-10.9,4.2-3.9,8.6-7.7,12.8-11.5.5-.4.7-1.1,1-1.8.1-.2,0-.6,0-.9.2-14.3.3-28.5.4-42.8,0-.7-.3-1.3-.4-2-.5.4-1.1.7-1.5,1.2-3.3,3.3-6.6,6.7-10,10-8,7.8-15.9,15.7-24,23.5-3.5,3.4-7.9,4.8-12.6,3.6-5.5-1.3-9.1-4.7-10.6-10.5-1.6-6.3,2.2-12.2,6.5-15.8.4-.3.8-.6,1.1-.9,13.2-13,26.3-26,39.5-39,3.3-3.3,6.8-6.4,10.1-9.7.8-.8,1.4-2.3,1.4-3.5.1-14.7.1-29.4,0-44.1,0-5.8-.3-11.6-.4-17.4,0-3.5,0-3.6-3.3-1.8-7.4,4.1-14.7,8.3-22,12.4-5.6,3.1-11.2,6.2-16.7,9.4-5,2.8-10.1,5.7-15.1,8.6-.9.5-1.6,1.8-1.9,2.8-2.1,7.8-4.1,15.5-6.1,23.3-2.2,8.4-4.4,16.9-6.6,25.3-2.1,8.1-3.8,16.2-6.2,24.2-1.6,5.4-5.4,9-11.5,9.9-8.2,1.2-14.8-5.3-15.5-11.8-.5-4.5,1.1-8.4,2.1-12.5,2.5-10.4,5.3-20.8,8-31.2.7-2.7,1.5-5.5,2.2-8.2.1-.5.1-1,.2-1.5-.5.1-1.1.2-1.5.4-4,2.3-8,4.7-12.1,7.1-4.9,2.9-9.9,5.8-14.8,8.7-3,1.7-6,3.4-9,5.1-2.6,1.4-3.3,3.8-3.8,6.4-2.3,10.4-4.8,20.7-7.2,31.1-1.7,7.2-3.4,14.5-5.2,21.7-1.3,5-5,7.6-9.6,8.8-8.5,2.3-16.2-4.2-16.9-12.1-.4-4.3,1-8.2,1.8-12.2,1.3-6.2,2.8-12.4,4.3-18.6.2-.8.5-1.5.7-2.3.1-.4.1-.9.2-1.3-.5,0-1,0-1.4.2-3.4,2-6.8,4.1-10.3,6.2-5,3-10,5.9-15,8.9-.6.3-1.2.6-1.9,1.1Z"/>
</svg>