<?xml version="1.0" encoding="UTF-8"?>
<svg id="Layer_1" data-name="Layer 1" xmlns="http://www.w3.org/2000/svg" version="1.1" xmlns:xlink="http://www.w3.org/1999/xlink" viewBox="0 0 1080 1080">
  <defs>
    <style>
      .cls-1 {
        clip-path: url(#clippath-2);
      }

      .cls-2 {
        fill: none;
      }

      .cls-2, .cls-3, .cls-4 {
        stroke-width: 0px;
      }

      .cls-5 {
        clip-path: url(#clippath-1);
      }

      .cls-3 {
        fill: #e394b4;
      }

      .cls-6 {
        clip-path: url(#clippath);
      }

      .cls-4 {
        fill: #fff;
      }
    </style>
    <clipPath id="clippath">
      <rect class="cls-2" x="48" y="48" width="984" height="984"/>
    </clipPath>
    <clipPath id="clippath-1">
      <circle class="cls-2" cx="540" cy="540" r="492"/>
    </clipPath>
    <clipPath id="clippath-2">
      <rect class="cls-2" x="274.8" y="233.9" width="530" height="612"/>
    </clipPath>
  </defs>
  <g class="cls-6">
    <g class="cls-5">
      <path class="cls-3" d="M48,48h984v984H48V48Z"/>
    </g>
  </g>
  <g class="cls-1">
    <path class="cls-4" d="M727.5,736.9c-36.3-52.9-98.9-146.4-115.7-187.3-10.4-25.2-19.1-58.1-23-73.4h13.2c5.7,11.4,23.8,46.5,42.2,72.5,32.3,45.7,116.7,137.8,140.9,164-10.4,5.2-30.3,14.6-57.7,24.1ZM661.2,786.4c-25.9-61.7-73.7-178.9-82.5-226.3-5.5-29.7-7.2-68.2-7.7-83.8h2.9c3.3,13.5,12.7,50.3,24.5,78.9,17.1,41.7,77.8,132.8,114.7,186.5,3.1,4.5,6,8.7,8.7,12.6,5.7,8.2,10.5,15.1,14,20.1-13.5,2.7-39.2,7.4-74.7,12ZM660.8,822.8c-20.2,2.7-70.6,8.7-122.9,8.7s-100.7-6.2-122.8-8.9c1.7-3.9,3.9-9,6.4-15,1.8-4.2,3.8-8.9,5.9-14,26-61.6,74.7-181.1,84-230.8,5.8-31.3,7.5-70.8,7.9-86.5h37.1c.4,15.7,2.1,55.2,7.9,86.5,9,48.3,55.3,162.6,81.8,225.6,2.1,5,4.1,9.7,5.9,13.9,3.6,8.5,6.6,15.5,8.8,20.5ZM339.3,775.3c4-5.7,9.8-14,16.8-24.1,2.7-3.9,5.6-8.1,8.7-12.6,37-54.1,95.8-142.6,112.6-183.5,11.7-28.6,21.2-65.4,24.5-78.9h2.9c-.5,15.6-2.2,54.1-7.7,83.8-9.1,48.7-59.3,171.4-84.6,231.4-34.5-5.3-60.3-12.2-73.2-16.2ZM295.1,712.4c24.7-26.7,108.4-118.1,140.6-163.6,18.4-26,36.5-61.1,42.2-72.5h9.1c-3.8,15.3-12.6,48.1-22.9,73.4-16.5,40.1-77,130.9-113.6,184.3-25.5-8.7-44.8-16.8-55.3-21.5ZM462.2,308.4c.6-1,.9-2.1,1-3.2l3.6-56.8h11.7l6,33.8c.2,8,4.5,15.2,11.3,19l41.7,23.1c2.2,1.2,4.9,1.2,7,0l41.7-23.1c6.8-3.8,11.1-11,11.3-19l6-33.8h11.7l3.6,56.8c0,1.1.4,2.2,1,3.2.2.4,23.3,41.5.6,70.4-7.4,9.4-14.5,24.1-17.9,31.5h-123.1c-3.3-7.3-10.5-22-17.9-31.5-22.7-28.9.3-70,.6-70.4ZM481.3,461.7v-35.7h118.2v35.7h-118.2ZM802.3,709.8c-1.1-1.2-109.6-117.8-146.2-169.4-18.9-26.7-38.1-64.8-42.1-72.7v-47.3c.3-.8,9.2-21.5,17.9-32.5,26.3-33.5,6.1-76.3,1.4-85.1l-4-62c-.2-3.8-3.4-6.8-7.3-6.8h-24.6c-3.5,0-6.5,2.5-7.2,6l-7.2,40.4c0,.4-.1.8-.1,1.3,0,2.9-1.5,5.7-3.9,7l-38.2,21.1-38.2-21.1c-2.3-1.3-3.9-4-3.9-7s0-.9-.1-1.3l-7.2-40.4c-.6-3.5-3.6-6-7.2-6h-24.6c-3.8,0-7,3-7.3,6.8l-4,62c-4.7,8.8-24.9,51.6,1.4,85.1,6.8,8.6,13.8,23.3,16.6,29.6v48.9h-.2c-.2.4-21.7,44.3-42.8,74.1-36.6,51.7-145.1,168.3-146.2,169.4-1.6,1.7-2.2,4-1.8,6.3.4,2.3,1.8,4.2,3.9,5.2,1.1.5,24.3,12.1,62,25.1-11.8,17.2-19.7,28.2-20,28.6-1.3,1.9-1.7,4.2-1,6.4.7,2.2,2.3,3.9,4.5,4.7,2.1.8,32.7,11.7,81.4,19.4-5.3,12.4-8.5,19.9-8.7,20.3-.9,2.1-.8,4.5.3,6.5,1.1,2,3.1,3.3,5.4,3.6.8,0,77,10.2,134.3,10.2s133.8-10.1,134.5-10.2c2.2-.4,4.2-1.7,5.2-3.7,1.1-2,1.2-4.3.3-6.4-.2-.4-4.3-10-10.9-25.4,51.8-6.9,82.2-13.9,82.7-14,2.4-.5,4.3-2.2,5.2-4.5.9-2.3.6-4.8-.9-6.8-.3-.4-7.2-10.2-17.9-25.7,40.1-14.3,63.4-27.7,64.5-28.3,1.9-1.1,3.2-3,3.6-5.2.3-2.2-.4-4.4-1.9-6"/>
  </g>
</svg>