<svg fill="#FFFFFF" xmlns="http://www.w3.org/2000/svg"  viewBox="0 0 24 24" width="48px" height="48px"><path d="M18.672,3.442C16.712,3.148,14.468,3,12,3S7.288,3.148,5.328,3.442C3.399,3.732,2,5.354,2,7.298v9.404	c0,1.944,1.399,3.565,3.328,3.855C7.288,20.852,9.532,21,12,21s4.712-0.148,6.672-0.442C20.601,20.268,22,18.646,22,16.702V7.298	C22,5.354,20.601,3.732,18.672,3.442z M15.727,12.818l-5.313,3.055C9.785,16.235,9,15.781,9,15.055v-6.11	c0-0.726,0.785-1.18,1.414-0.818l5.313,3.055C16.358,11.545,16.358,12.455,15.727,12.818z"/></svg>